<svg xmlns="http://www.w3.org/2000/svg" xmlns:xlink="http://www.w3.org/1999/xlink" width="132" height="152.5" viewBox="0 0 132 152.5">
  <defs>
    <clipPath id="clip-path">
      <rect id="Rectangle_40" data-name="Rectangle 40" width="132" height="132" transform="translate(629 284)" fill="#fff"/>
    </clipPath>
    <filter id="Path_94" x="4.501" y="-3" width="126.999" height="142.005" filterUnits="userSpaceOnUse">
      <feOffset dx="2" dy="2" input="SourceAlpha"/>
      <feGaussianBlur stdDeviation="5" result="blur"/>
      <feFlood flood-opacity="0.22"/>
      <feComposite operator="in" in2="blur"/>
      <feComposite in="SourceGraphic"/>
    </filter>
    <linearGradient id="linear-gradient" x1="-0.033" y1="0.355" x2="0.936" y2="0.395" gradientUnits="objectBoundingBox">
      <stop offset="0" stop-opacity="0.349"/>
      <stop offset="1" stop-opacity="0.251"/>
    </linearGradient>
  </defs>
  <g id="VC_Logo" transform="translate(-629 -284)">
    <path id="Path_31" data-name="Path 31" d="M44.2,14.873,45.3,12.761a4.962,4.962,0,0,0,2.9.921c1.615,0,2.3-.731,2.3-2.08v-.286a3.2,3.2,0,0,1-2.549,1.016,4.065,4.065,0,0,1-4.212-4.16A4.061,4.061,0,0,1,47.94,4.027a3.111,3.111,0,0,1,2.692,1.191V4.17H53.5V11.2c0,3.255-1.837,4.8-5.036,4.8A7.526,7.526,0,0,1,44.2,14.873Zm2.565-6.7a1.88,1.88,0,0,0,3.753,0,1.881,1.881,0,0,0-3.753,0Zm57.863,7.686V4.17H107.5v.857a3.093,3.093,0,0,1,2.534-1,4.168,4.168,0,0,1,4.212,4.446,4.168,4.168,0,0,1-4.212,4.446,3.2,3.2,0,0,1-2.391-.905v3.843Zm2.961-7.384a1.82,1.82,0,1,0,3.61,0,1.82,1.82,0,1,0-3.61,0ZM5.527,13.142H5.264L-1,1.661H2.389L5.4,7.823,8.47,1.661h3.1L5.527,13.142ZM55,7.219a5.74,5.74,0,0,1,6.1-5.78,5.856,5.856,0,0,1,4.767,2.1l-2,1.81a3.274,3.274,0,0,0-2.613-1.3A2.976,2.976,0,0,0,58.17,7.219a2.977,2.977,0,0,0,3.088,3.176,3.274,3.274,0,0,0,2.613-1.3l2,1.81A5.856,5.856,0,0,1,61.1,13,5.74,5.74,0,0,1,55,7.219Zm59.953,4.811.9-2.064a6.008,6.008,0,0,0,2.993.794c1.014,0,1.346-.222,1.346-.588,0-1.159-5.067.159-5.067-3.287,0-1.62,1.488-2.858,4.181-2.858a7.512,7.512,0,0,1,3.389.731l-.9,2.048a5.018,5.018,0,0,0-2.47-.635c-1.013,0-1.378.286-1.378.6,0,1.191,5.052-.1,5.052,3.319,0,1.588-1.457,2.827-4.244,2.827A7.859,7.859,0,0,1,114.956,12.03ZM77.647,10.267C77.647,8.68,78.8,7.7,81.464,7.7h1.71c-.048-.873-.633-1.366-1.821-1.366a3.991,3.991,0,0,0-2.328.746L78.011,5.027a7.2,7.2,0,0,1,3.785-1c2.787,0,4.386,1.239,4.386,3.97v4.78h-2.8V11.665a2.6,2.6,0,0,1-2.534,1.255C78.787,12.919,77.647,11.76,77.647,10.267Zm2.914-.127c0,.508.412.873,1.124.873a1.482,1.482,0,0,0,1.488-1V9.267h-1.3C80.909,9.267,80.561,9.616,80.561,10.141Zm-59.13-.508V6.742H20.18V4.488h1.251V2.249H24.44V4.488H26.4V6.742H24.44V9.6a.873.873,0,0,0,.9.985,1.642,1.642,0,0,0,.918-.27l.744,2.112a4.036,4.036,0,0,1-2.09.492C22.714,12.919,21.431,11.84,21.431,9.632ZM10,8.457c0-2.588,2.043-4.43,4.846-4.43,2.834,0,4.846,1.842,4.846,4.43,0,2.6-2.011,4.462-4.846,4.462C12.041,12.919,10,11.062,10,8.457Zm3.04,0a1.822,1.822,0,1,0,3.61,0,1.818,1.818,0,1,0-3.61,0Zm86.683,4.319V8.346c0-1.239-.507-1.763-1.3-1.763-.871,0-1.5.587-1.5,1.921v4.272H93.91V8.346c0-1.239-.491-1.763-1.3-1.763-.887,0-1.52.587-1.52,1.921v4.272H88.083V4.17h2.866v.905a3.409,3.409,0,0,1,2.565-1.048,3.139,3.139,0,0,1,2.771,1.35,3.713,3.713,0,0,1,2.977-1.35c2,0,3.468,1.159,3.468,3.827v4.923Zm-26.477,0V8.346c0-1.239-.538-1.763-1.409-1.763-.966,0-1.71.6-1.71,2.033v4.16H67.117V.994h3.009v3.97a3.714,3.714,0,0,1,2.581-.937c2.011,0,3.547,1.159,3.547,3.827v4.923Zm-34,0V8.346c0-1.239-.538-1.763-1.409-1.763-.966,0-1.71.6-1.71,2.033v4.16H33.118V4.17h2.866v.937a3.681,3.681,0,0,1,2.724-1.08c2.011,0,3.547,1.159,3.547,3.827v4.923Zm-11.085,0V4.17H31.17v8.607ZM27.98,1.734a1.729,1.729,0,1,1,1.729,1.734A1.732,1.732,0,0,1,27.98,1.734Z" transform="translate(634 420)" fill="#363645" stroke="rgba(0,0,0,0)" stroke-width="1"/>
    <g id="Mask_Group_2" data-name="Mask Group 2" clip-path="url(#clip-path)">
      <g id="Group_69" data-name="Group 69">
        <g id="Group_68" data-name="Group 68">
          <g transform="matrix(1, 0, 0, 1, 629, 284)" filter="url(#Path_94)">
            <path id="Path_94-2" data-name="Path 94" d="M-553.461-2681.082h-32.322L-569.6-2709.1l-16.121-27.98h32.276l16.167-28,16.137,27.952-.028.049h32.248l-16.15,28.03,16.148,27.972h-32.266l-16.134,28Z" transform="translate(603.43 2775.08)" fill="#fff"/>
          </g>
          <g id="Group_67" data-name="Group 67" transform="translate(509.5 -91)">
            <path id="Path_90" data-name="Path 90" d="M83.872.074l.085,96.951L.043,48.475Z" transform="translate(161.402 371) rotate(30)" fill="#66f"/>
            <path id="Path_91" data-name="Path 91" d="M1861.607-2382.95l-.025-.043L1893.813-2439h.124l24.161,14.112-33.531,58.077Z" transform="translate(-1692.246 2852)" fill="url(#linear-gradient)"/>
            <path id="Path_92" data-name="Path 92" d="M21.249,102h0l1,0L38.417,74h63.661l16.166,28Z" transform="translate(115.754 367)" fill="#ff7c24"/>
            <path id="Path_93" data-name="Path 93" d="M0,84H0L48.5,0,64.637,27.952,32.275,84Z" transform="translate(137.143 385)" fill="#fff"/>
          </g>
        </g>
      </g>
    </g>
  </g>
</svg>
